<?xml version="1.0" encoding="utf-8"?><svg xmlns="http://www.w3.org/2000/svg" xmlns:xlink="http://www.w3.org/1999/xlink"><symbol fill="none" viewBox="0 0 174 59" id="Logo" xmlns="http://www.w3.org/2000/svg"><path d="m71 30 7.168-19.584c.405-1.067 1.067-1.867 1.984-2.4.939-.555 1.995-.832 3.168-.832s2.219.267 3.136.8c.939.533 1.61 1.333 2.016 2.4L95.64 30h-7.328l-1.216-3.904h-7.648L78.168 30H71Zm9.888-9.184h4.768l-2.08-7.2c-.021-.064-.053-.107-.096-.128a.217.217 0 0 0-.16-.064c-.043 0-.085.021-.128.064-.043.021-.075.064-.096.128l-2.208 7.2ZM106.102 30c-1.43 0-2.699-.299-3.808-.896a7.03 7.03 0 0 1-2.624-2.496c-.64-1.067-.96-2.272-.96-3.616v-9.984h-5.792V7.6h18.368v5.408h-5.664v10.336c0 .341.117.64.352.896.234.235.522.352.864.352h2.144V30h-2.88Zm17.639.416c-1.77 0-3.402-.288-4.896-.864a11.552 11.552 0 0 1-3.84-2.432 11.631 11.631 0 0 1-2.496-3.712c-.597-1.408-.896-2.944-.896-4.608 0-1.664.299-3.2.896-4.608a11.18 11.18 0 0 1 2.496-3.712 11.552 11.552 0 0 1 3.84-2.432c1.494-.576 3.126-.864 4.896-.864 1.771 0 3.392.288 4.864.864 1.494.576 2.774 1.387 3.84 2.432a10.926 10.926 0 0 1 2.528 3.712c.598 1.408.896 2.944.896 4.608 0 1.664-.298 3.2-.896 4.608a11.356 11.356 0 0 1-2.528 3.712c-1.066 1.045-2.346 1.856-3.84 2.432-1.472.576-3.093.864-4.864.864Zm0-5.568c.79 0 1.504-.15 2.144-.448a4.877 4.877 0 0 0 1.632-1.312 5.914 5.914 0 0 0 1.024-1.92 7.842 7.842 0 0 0 .352-2.368c0-.832-.117-1.61-.352-2.336a5.86 5.86 0 0 0-1.024-1.952 4.542 4.542 0 0 0-1.632-1.28c-.64-.32-1.354-.48-2.144-.48-.789 0-1.504.16-2.144.48a4.542 4.542 0 0 0-1.632 1.28 5.879 5.879 0 0 0-1.024 1.952 7.565 7.565 0 0 0-.352 2.336c0 .832.118 1.621.352 2.368a5.933 5.933 0 0 0 1.024 1.92c.448.555.992.992 1.632 1.312.64.299 1.355.448 2.144.448Zm31.411 5.568a9.218 9.218 0 0 1-3.872-.832 7.088 7.088 0 0 1-2.912-2.464c-.747-1.088-1.12-2.421-1.12-4v-8.672a1.24 1.24 0 0 0-.192-.704 1.09 1.09 0 0 0-.448-.48 1.361 1.361 0 0 0-.672-.16 1.55 1.55 0 0 0-.704.16 1.295 1.295 0 0 0-.48.48c-.107.192-.16.427-.16.704V30H138V14.512c0-1.557.362-2.88 1.088-3.968a7.28 7.28 0 0 1 2.944-2.496 9.004 9.004 0 0 1 3.904-.864c1.386 0 2.677.288 3.872.864a7.342 7.342 0 0 1 2.912 2.496c.746 1.088 1.12 2.41 1.12 3.968v8.672c0 .277.064.523.192.736.128.192.288.341.48.448.192.107.394.16.608.16.234 0 .458-.053.672-.16.213-.107.384-.256.512-.448.128-.213.192-.459.192-.736v-8.672c0-1.557.373-2.88 1.12-3.968a7.328 7.328 0 0 1 2.912-2.496 8.931 8.931 0 0 1 3.872-.864 8.73 8.73 0 0 1 3.84.864 7.342 7.342 0 0 1 2.912 2.496c.746 1.088 1.12 2.41 1.12 3.968V30h-6.56V14.352c0-.256-.064-.47-.192-.64a1.375 1.375 0 0 0-.48-.448 1.297 1.297 0 0 0-.64-.16c-.235 0-.459.053-.672.16a1.3 1.3 0 0 0-.512.448c-.107.17-.16.384-.16.64v8.768c0 1.579-.384 2.912-1.152 4a7.1 7.1 0 0 1-2.912 2.464 9.009 9.009 0 0 1-3.84.832Z" fill="#5969FF"/><path d="m79.994 46.967-.699-1.657h-4.957l-.7 1.657h-2.515l3.767-8.59h3.926l3.78 8.59h-2.602Zm-4.834-3.571h3.325l-1.669-3.927-1.656 3.927Zm15.597-5.019h2.553v4.92c0 1.203-.43 2.14-1.289 2.81-.859.672-2.11 1.007-3.755 1.007-1.652 0-2.908-.335-3.767-1.006-.859-.67-1.288-1.608-1.288-2.81v-4.92h2.552v4.662c0 .622.2 1.109.602 1.46.409.352 1.043.528 1.901.528 1.661 0 2.491-.663 2.491-1.988v-4.663Zm3.88 2.086v-2.086h9.793v2.086h-3.62v6.504h-2.553v-6.504h-3.62Zm11.965 5.473c-1.006-.785-1.509-1.873-1.509-3.264 0-1.39.503-2.479 1.509-3.264 1.006-.785 2.405-1.178 4.196-1.178 1.792 0 3.191.393 4.197 1.178 1.006.785 1.509 1.873 1.509 3.264 0 1.39-.503 2.479-1.509 3.264-1.006.785-2.405 1.178-4.197 1.178-1.791 0-3.19-.393-4.196-1.178Zm1.865-4.982c-.548.425-.822.998-.822 1.718s.274 1.297.822 1.73c.556.426 1.333.638 2.331.638s1.771-.212 2.32-.638c.556-.433.834-1.01.834-1.73s-.278-1.292-.834-1.718c-.549-.433-1.322-.65-2.32-.65-.998 0-1.775.217-2.331.65Zm8.699-.49v-2.087h9.792v2.086h-3.62v6.504h-2.552v-6.504h-3.62Zm18.071 6.503-2.81-3.043h-1.595v3.043h-2.553v-8.59h6.111c1.031 0 1.882.238 2.552.712.679.474 1.019 1.19 1.019 2.147 0 1.53-.88 2.41-2.638 2.639l3.141 3.092h-3.227Zm-4.405-6.553v1.595h3.435c.352 0 .63-.065.835-.196a.643.643 0 0 0 .307-.577.696.696 0 0 0-.319-.6c-.205-.148-.479-.222-.823-.222h-3.435Zm16.819 6.553-.7-1.657h-4.957l-.699 1.657h-2.516l3.767-8.59h3.927l3.779 8.59h-2.601Zm-4.835-3.571h3.326l-1.669-3.927-1.657 3.927Zm13.45-5.019c1.685 0 3.014.372 3.988 1.117.973.744 1.46 1.804 1.46 3.178 0 1.374-.487 2.434-1.46 3.178-.974.745-2.303 1.117-3.988 1.117h-4.859v-8.59h4.859Zm-.27 6.504c1.039 0 1.824-.188 2.356-.565.54-.384.81-.932.81-1.644 0-.712-.27-1.256-.81-1.632-.532-.384-1.317-.577-2.356-.577h-2.037v4.418h2.037Zm7.286 2.086v-8.59h8.749v1.988h-6.197v1.3h4.835v1.866h-4.835v1.448h6.43v1.988h-8.982Z" fill="#36175E"/><path d="M51.727 29.5c4.95-5.483 6.974-10.879 4.83-14.532-2.676-4.556-9.952-4.237-15.215-3.153a34.216 34.216 0 0 0-1.019-2.651 3.888 3.888 0 0 0 1.107-1.998c.16-.759.086-1.547-.212-2.265a3.92 3.92 0 0 0-1.459-1.765 4.02 4.02 0 0 0-2.212-.667c-.503 0-.982.102-1.426.27C34.546 1.255 32.803.435 30.958.435c-4.29 0-8.03 4.423-10.385 11.381-5.26-1.083-12.537-1.405-15.214 3.153-2.144 3.653-.12 9.05 4.83 14.533-1.227 1.36-2.274 2.713-3.123 4.037-.165-.021-.327-.05-.498-.05a4.016 4.016 0 0 0-2.81 1.147 3.882 3.882 0 0 0-1.165 2.762c0 1.41.774 2.636 1.918 3.32-.005 1.212.266 2.33.847 3.318 2.676 4.557 9.958 4.232 15.215 3.15 2.354 6.958 6.096 11.381 10.385 11.381 4.29 0 8.03-4.423 10.385-11.381 2.876.592 5.615.879 8.397.547a3.97 3.97 0 0 0 3.15 1.564 4.015 4.015 0 0 0 2.81-1.147 3.882 3.882 0 0 0 1.166-2.763 3.8 3.8 0 0 0-.279-1.41c2.09-3.653.064-9.02-4.861-14.475V29.5Zm-20.77 11.46a67.422 67.422 0 0 1-10.108-5.72 65.768 65.768 0 0 1 .01-11.47 66.007 66.007 0 0 1 10.099-5.727 66.006 66.006 0 0 1 10.098 5.726c.347 3.824.332 7.797.01 11.471a67.427 67.427 0 0 1-10.108 5.72Zm9.712-2.328a48.407 48.407 0 0 1-1.114 5.462 51.635 51.635 0 0 1-5.385-1.774 67.717 67.717 0 0 0 6.499-3.688ZM27.746 42.32a51.62 51.62 0 0 1-5.386 1.774 48.43 48.43 0 0 1-1.113-5.462 67.765 67.765 0 0 0 6.499 3.688Zm-9.686-9.115a49.738 49.738 0 0 1-4.242-3.667 49.489 49.489 0 0 1 4.24-3.708 65.956 65.956 0 0 0 .002 7.375Zm3.213-12.85a48.25 48.25 0 0 1 1.137-5.433c1.81.49 3.591 1.078 5.336 1.76a67.677 67.677 0 0 0-6.473 3.673Zm12.896-3.673a51.66 51.66 0 0 1 5.337-1.76 48.261 48.261 0 0 1 1.136 5.432 67.756 67.756 0 0 0-6.473-3.672Zm9.689 9.147a49.484 49.484 0 0 1 4.24 3.709 49.8 49.8 0 0 1-4.243 3.668 65.94 65.94 0 0 0 .003-7.377Zm10.406-9.56c1.425 2.43-.14 6.685-4.333 11.362-1.834-1.794-3.968-3.578-6.356-5.293-.315-2.878-.815-5.575-1.473-8.026 3.78-.75 10.246-1.304 12.162 1.958ZM30.958 3.038c1.044 0 2.111.497 3.147 1.424a3.81 3.81 0 0 0-.532 1.917A3.882 3.882 0 0 0 34.74 9.14a4.016 4.016 0 0 0 2.81 1.146c.12 0 .231-.025.349-.034.295.685.577 1.414.844 2.184-2.51.676-5.135 1.603-7.784 2.75-2.65-1.147-5.275-2.074-7.784-2.75 2.04-5.89 5.002-9.4 7.784-9.4ZM7.652 16.27c1.915-3.262 8.384-2.708 12.162-1.957-.659 2.45-1.159 5.147-1.474 8.025-2.387 1.716-4.521 3.499-6.355 5.293-4.19-4.677-5.76-8.933-4.333-11.361Zm0 26.463c-.257-.436-.407-.942-.461-1.5 1.894-.294 3.353-1.891 3.353-3.836a3.854 3.854 0 0 0-1.087-2.667 29.219 29.219 0 0 1 2.572-3.316c1.823 1.78 3.943 3.548 6.311 5.25.315 2.876.815 5.574 1.474 8.023-3.76.747-10.247 1.31-12.163-1.954Zm23.306 13.23c-2.854 0-5.821-3.468-7.844-9.384 2.528-.678 5.174-1.61 7.844-2.766 2.67 1.157 5.316 2.088 7.844 2.766-2.023 5.916-4.99 9.384-7.844 9.384Zm11.144-11.277c.658-2.448 1.158-5.146 1.473-8.023 2.369-1.7 4.488-3.47 6.311-5.25 3.705 4.166 5.386 8.01 4.728 10.475a3.995 3.995 0 0 0-1.723-.4c-2.117 0-3.847 1.648-3.947 3.716-2.26.197-4.602-.072-6.842-.518Z" fill="#000"/><path d="M30.956 23.938c-3.115 0-5.656 2.499-5.656 5.562 0 3.062 2.541 5.561 5.656 5.561 3.123 0 5.656-2.499 5.656-5.561 0-3.063-2.533-5.562-5.656-5.562Z" fill="#000"/><ellipse cx="52.924" cy="45.182" rx="5" ry="4.917" fill="#5969FF"/></symbol><symbol fill="none" viewBox="0 0 174 59" id="Logo-white" xmlns="http://www.w3.org/2000/svg"><path d="m71 30 7.168-19.584c.405-1.067 1.067-1.867 1.984-2.4.939-.555 1.995-.832 3.168-.832s2.219.267 3.136.8c.939.533 1.61 1.333 2.016 2.4L95.64 30h-7.328l-1.216-3.904h-7.648L78.168 30H71Zm9.888-9.184h4.768l-2.08-7.2c-.021-.064-.053-.107-.096-.128a.217.217 0 0 0-.16-.064c-.043 0-.085.021-.128.064-.043.021-.075.064-.096.128l-2.208 7.2ZM106.102 30c-1.43 0-2.699-.299-3.808-.896a7.03 7.03 0 0 1-2.624-2.496c-.64-1.067-.96-2.272-.96-3.616v-9.984h-5.792V7.6h18.368v5.408h-5.664v10.336c0 .341.117.64.352.896.234.235.522.352.864.352h2.144V30h-2.88Zm17.639.416c-1.77 0-3.402-.288-4.896-.864a11.552 11.552 0 0 1-3.84-2.432 11.631 11.631 0 0 1-2.496-3.712c-.597-1.408-.896-2.944-.896-4.608 0-1.664.299-3.2.896-4.608a11.18 11.18 0 0 1 2.496-3.712 11.552 11.552 0 0 1 3.84-2.432c1.494-.576 3.126-.864 4.896-.864 1.771 0 3.392.288 4.864.864 1.494.576 2.774 1.387 3.84 2.432a10.926 10.926 0 0 1 2.528 3.712c.598 1.408.896 2.944.896 4.608 0 1.664-.298 3.2-.896 4.608a11.356 11.356 0 0 1-2.528 3.712c-1.066 1.045-2.346 1.856-3.84 2.432-1.472.576-3.093.864-4.864.864Zm0-5.568c.79 0 1.504-.15 2.144-.448a4.877 4.877 0 0 0 1.632-1.312 5.914 5.914 0 0 0 1.024-1.92 7.842 7.842 0 0 0 .352-2.368c0-.832-.117-1.61-.352-2.336a5.86 5.86 0 0 0-1.024-1.952 4.542 4.542 0 0 0-1.632-1.28c-.64-.32-1.354-.48-2.144-.48-.789 0-1.504.16-2.144.48a4.542 4.542 0 0 0-1.632 1.28 5.879 5.879 0 0 0-1.024 1.952 7.565 7.565 0 0 0-.352 2.336c0 .832.118 1.621.352 2.368a5.933 5.933 0 0 0 1.024 1.92c.448.555.992.992 1.632 1.312.64.299 1.355.448 2.144.448Zm31.411 5.568a9.218 9.218 0 0 1-3.872-.832 7.088 7.088 0 0 1-2.912-2.464c-.747-1.088-1.12-2.421-1.12-4v-8.672a1.24 1.24 0 0 0-.192-.704 1.09 1.09 0 0 0-.448-.48 1.361 1.361 0 0 0-.672-.16 1.55 1.55 0 0 0-.704.16 1.295 1.295 0 0 0-.48.48c-.107.192-.16.427-.16.704V30H138V14.512c0-1.557.362-2.88 1.088-3.968a7.28 7.28 0 0 1 2.944-2.496 9.004 9.004 0 0 1 3.904-.864c1.386 0 2.677.288 3.872.864a7.342 7.342 0 0 1 2.912 2.496c.746 1.088 1.12 2.41 1.12 3.968v8.672c0 .277.064.523.192.736.128.192.288.341.48.448.192.107.394.16.608.16.234 0 .458-.053.672-.16.213-.107.384-.256.512-.448.128-.213.192-.459.192-.736v-8.672c0-1.557.373-2.88 1.12-3.968a7.328 7.328 0 0 1 2.912-2.496 8.931 8.931 0 0 1 3.872-.864 8.73 8.73 0 0 1 3.84.864 7.342 7.342 0 0 1 2.912 2.496c.746 1.088 1.12 2.41 1.12 3.968V30h-6.56V14.352c0-.256-.064-.47-.192-.64a1.375 1.375 0 0 0-.48-.448 1.297 1.297 0 0 0-.64-.16c-.235 0-.459.053-.672.16a1.3 1.3 0 0 0-.512.448c-.107.17-.16.384-.16.64v8.768c0 1.579-.384 2.912-1.152 4a7.1 7.1 0 0 1-2.912 2.464 9.009 9.009 0 0 1-3.84.832ZM79.994 46.967l-.699-1.657h-4.957l-.7 1.657h-2.515l3.767-8.59h3.926l3.78 8.59h-2.602Zm-4.834-3.571h3.325l-1.669-3.927-1.656 3.927Zm15.597-5.019h2.553v4.92c0 1.203-.43 2.14-1.289 2.81-.859.672-2.11 1.007-3.755 1.007-1.652 0-2.908-.335-3.767-1.006-.859-.67-1.288-1.608-1.288-2.81v-4.92h2.552v4.662c0 .622.2 1.109.602 1.46.409.352 1.043.528 1.901.528 1.661 0 2.491-.663 2.491-1.988v-4.663Zm3.88 2.086v-2.086h9.793v2.086h-3.62v6.504h-2.553v-6.504h-3.62Zm11.965 5.473c-1.006-.785-1.509-1.873-1.509-3.264 0-1.39.503-2.479 1.509-3.264 1.006-.785 2.405-1.178 4.196-1.178 1.792 0 3.191.393 4.197 1.178 1.006.785 1.509 1.873 1.509 3.264 0 1.39-.503 2.479-1.509 3.264-1.006.785-2.405 1.178-4.197 1.178-1.791 0-3.19-.393-4.196-1.178Zm1.865-4.982c-.548.425-.822.998-.822 1.718s.274 1.297.822 1.73c.556.426 1.333.638 2.331.638s1.771-.212 2.32-.638c.556-.433.834-1.01.834-1.73s-.278-1.292-.834-1.718c-.549-.433-1.322-.65-2.32-.65-.998 0-1.775.217-2.331.65Zm8.699-.49v-2.087h9.792v2.086h-3.62v6.504h-2.552v-6.504h-3.62Zm18.071 6.503-2.81-3.043h-1.595v3.043h-2.553v-8.59h6.111c1.031 0 1.882.238 2.552.712.679.474 1.019 1.19 1.019 2.147 0 1.53-.88 2.41-2.638 2.639l3.141 3.092h-3.227Zm-4.405-6.553v1.595h3.435c.352 0 .63-.065.835-.196a.643.643 0 0 0 .307-.577.696.696 0 0 0-.319-.6c-.205-.148-.479-.222-.823-.222h-3.435Zm16.819 6.553-.7-1.657h-4.957l-.699 1.657h-2.516l3.767-8.59h3.927l3.779 8.59h-2.601Zm-4.835-3.571h3.326l-1.669-3.927-1.657 3.927Zm13.45-5.019c1.685 0 3.014.372 3.988 1.117.973.744 1.46 1.804 1.46 3.178 0 1.374-.487 2.434-1.46 3.178-.974.745-2.303 1.117-3.988 1.117h-4.859v-8.59h4.859Zm-.27 6.504c1.039 0 1.824-.188 2.356-.565.54-.384.81-.932.81-1.644 0-.712-.27-1.256-.81-1.632-.532-.384-1.317-.577-2.356-.577h-2.037v4.418h2.037Zm7.286 2.086v-8.59h8.749v1.988h-6.197v1.3h4.835v1.866h-4.835v1.448h6.43v1.988h-8.982ZM51.728 29.5c4.95-5.483 6.974-10.879 4.83-14.532-2.676-4.556-9.952-4.237-15.215-3.153a34.176 34.176 0 0 0-1.019-2.651 3.889 3.889 0 0 0 1.107-1.998c.16-.759.086-1.547-.212-2.265a3.92 3.92 0 0 0-1.459-1.765 4.02 4.02 0 0 0-2.212-.667c-.503 0-.982.102-1.426.27C34.547 1.255 32.804.435 30.96.435c-4.29 0-8.03 4.423-10.386 11.381-5.258-1.083-12.536-1.405-15.213 3.153-2.144 3.653-.12 9.05 4.83 14.533-1.227 1.36-2.274 2.713-3.123 4.037-.165-.021-.327-.05-.498-.05a4.016 4.016 0 0 0-2.81 1.147 3.882 3.882 0 0 0-1.165 2.762c0 1.41.774 2.636 1.918 3.32-.005 1.212.266 2.33.847 3.318 2.676 4.557 9.958 4.232 15.214 3.15 2.355 6.958 6.097 11.381 10.386 11.381 4.29 0 8.03-4.423 10.385-11.381 2.877.592 5.615.879 8.397.547a3.97 3.97 0 0 0 3.15 1.564 4.016 4.016 0 0 0 2.81-1.147 3.882 3.882 0 0 0 1.166-2.763 3.8 3.8 0 0 0-.278-1.41c2.089-3.653.063-9.02-4.862-14.475V29.5Zm-20.77 11.46a67.432 67.432 0 0 1-10.108-5.72 65.778 65.778 0 0 1 .01-11.47 66.01 66.01 0 0 1 10.099-5.727 66.002 66.002 0 0 1 10.098 5.726c.347 3.824.332 7.797.01 11.471a67.428 67.428 0 0 1-10.108 5.72Zm9.712-2.328a48.407 48.407 0 0 1-1.114 5.462 51.627 51.627 0 0 1-5.385-1.774 67.73 67.73 0 0 0 6.499-3.688ZM27.747 42.32a51.62 51.62 0 0 1-5.386 1.774 48.407 48.407 0 0 1-1.113-5.462 67.765 67.765 0 0 0 6.499 3.688Zm-9.686-9.115a49.755 49.755 0 0 1-4.242-3.667 49.52 49.52 0 0 1 4.24-3.708 65.98 65.98 0 0 0 .002 7.375Zm3.213-12.85a48.25 48.25 0 0 1 1.136-5.433 51.69 51.69 0 0 1 5.337 1.76 67.68 67.68 0 0 0-6.473 3.673Zm12.896-3.673a51.66 51.66 0 0 1 5.337-1.76 48.261 48.261 0 0 1 1.137 5.432 67.756 67.756 0 0 0-6.474-3.672Zm9.689 9.147a49.484 49.484 0 0 1 4.24 3.709 49.8 49.8 0 0 1-4.243 3.668c.14-2.546.139-4.862.003-7.377Zm10.406-9.56c1.425 2.43-.141 6.685-4.333 11.362-1.834-1.794-3.968-3.578-6.356-5.293-.315-2.878-.815-5.575-1.473-8.026 3.78-.75 10.246-1.304 12.162 1.958ZM30.96 3.038c1.044 0 2.111.497 3.147 1.424a3.811 3.811 0 0 0-.532 1.917A3.882 3.882 0 0 0 34.74 9.14a4.016 4.016 0 0 0 2.809 1.146c.12 0 .232-.025.35-.034.295.685.577 1.414.844 2.184-2.51.676-5.135 1.603-7.784 2.75-2.65-1.147-5.275-2.074-7.784-2.75 2.04-5.89 5.002-9.4 7.784-9.4ZM7.653 16.27c1.915-3.262 8.384-2.708 12.163-1.957-.66 2.45-1.16 5.147-1.475 8.025-2.388 1.716-4.521 3.499-6.355 5.293-4.19-4.677-5.76-8.933-4.333-11.361Zm0 26.463c-.257-.436-.407-.942-.461-1.5 1.894-.294 3.353-1.891 3.353-3.836a3.853 3.853 0 0 0-1.087-2.667 29.221 29.221 0 0 1 2.572-3.316c1.824 1.78 3.943 3.548 6.311 5.25.315 2.876.815 5.574 1.474 8.023-3.761.747-10.247 1.31-12.163-1.954Zm23.306 13.23c-2.854 0-5.821-3.468-7.844-9.384 2.528-.678 5.174-1.61 7.844-2.766 2.67 1.157 5.316 2.088 7.844 2.766-2.023 5.916-4.99 9.384-7.844 9.384Zm11.144-11.277c.658-2.448 1.158-5.146 1.473-8.023 2.369-1.7 4.488-3.47 6.311-5.25 3.705 4.166 5.386 8.01 4.728 10.475a3.995 3.995 0 0 0-1.723-.4c-2.117 0-3.847 1.648-3.947 3.716-2.261.197-4.602-.072-6.842-.518Z" fill="#fff"/><path d="M30.957 23.938c-3.115 0-5.656 2.499-5.656 5.562 0 3.062 2.541 5.561 5.656 5.561 3.123 0 5.655-2.499 5.655-5.561 0-3.063-2.532-5.562-5.655-5.562Z" fill="#fff"/><ellipse cx="52.924" cy="45.182" rx="5" ry="4.917" fill="#fff"/></symbol><symbol fill="none" viewBox="0 0 18 15" id="check" xmlns="http://www.w3.org/2000/svg"><path d="M6.097 14.028H7.11L18 3.137 15.11.25 6.603 8.76 2.89 5.044 0 7.934l6.097 6.094Z" fill="#5969FF"/></symbol><symbol fill="none" viewBox="0 0 14 14" id="dot" xmlns="http://www.w3.org/2000/svg"><circle cx="7" cy="7" r="7" fill="#36175E"/></symbol><symbol fill="none" viewBox="0 0 44 44" id="dot-active" xmlns="http://www.w3.org/2000/svg"><circle cx="22" cy="22" r="7" fill="#5969FF"/><circle cx="22" cy="22" r="20.5" stroke="#5969FF" stroke-width="3"/></symbol><symbol fill="none" viewBox="0 0 24 24" id="minus" xmlns="http://www.w3.org/2000/svg"><path fill-rule="evenodd" clip-rule="evenodd" d="M12 0C5.383 0 0 5.383 0 12s5.383 12 12 12 12-5.383 12-12S18.617 0 12 0Zm5.25 13H6.75a1 1 0 0 1 0-2h10.5a1 1 0 0 1 0 2Z" fill="#5969FF"/></symbol><symbol fill="none" viewBox="0 0 24 24" id="plus" xmlns="http://www.w3.org/2000/svg"><path d="M12 0C5.383 0 0 5.383 0 12s5.383 12 12 12 12-5.383 12-12S18.617 0 12 0Zm5.25 13H13v4.25a1 1 0 0 1-2 0V13H6.75a1 1 0 0 1 0-2H11V6.75a1 1 0 0 1 2 0V11h4.25a1 1 0 0 1 0 2Z" fill="#5969FF"/></symbol></svg>